<?xml version="1.0" encoding="UTF-8"?>
<svg viewBox="0 0 200 40" xmlns="http://www.w3.org/2000/svg">
  <!-- Icon -->
  <g transform="translate(0, 2) scale(0.33)">
    <path fill="currentColor" d="M77.14,79.93c-13.87,11.77-34.63,10.66-46.97-2.2-11.97-12.48-12.62-32.5-1.19-45.95-4.75-4.75-9.5-9.5-14.31-14.28C.4,32.63-3.79,55.19,3.55,73.82c4.47,11.36,19.48,35.14,54.6,34.76,15.66-.17,31.31-.34,46.97-.51-9.33-9.38-18.65-18.77-27.98-28.15Z"/>
    <path fill="currentColor" d="M93.08,16C75.57-1.81,47.76-5.17,26.44,8.03c5.09,4.92,10.17,9.83,15.26,14.75,13.84-5.41,29.32-1.53,38.49,9.16,8.1,9.44,10.24,22.95,5.43,34.93,4.86,5.14,9.72,10.29,14.58,15.43,13.24-21.06,10.24-48.64-7.12-66.3Z"/>
    <circle fill="#ff8949" cx="54.37" cy="54.04" r="16.41"/>
  </g>
  <!-- Wordmark -->
  <text x="48" y="28" font-family="Manrope, sans-serif" font-size="24" font-weight="800" fill="currentColor" letter-spacing="-0.5">Qimora</text>
</svg>
